<svg width="933" height="687" viewBox="0 0 933 687" fill="none" xmlns="http://www.w3.org/2000/svg">
<g opacity="0.5">
<g filter="url(#filter0_f_354_106)">
<path d="M0 97V464H322.5V246C284.333 211.833 195 148.4 143 168C91 187.6 26 128.833 0 97Z" fill="black"/>
</g>
<g filter="url(#filter1_f_354_106)">
<path d="M258 176V464H484V292.926C457.254 266.114 394.651 216.336 358.211 231.717C321.771 247.098 276.22 200.981 258 176Z" fill="#202020"/>
</g>
<g filter="url(#filter2_f_354_106)">
<path d="M430 294.586V454.586C430 459.556 434.029 463.586 439 463.586H701.5C706.471 463.586 710.5 459.556 710.5 454.586V296.458C710.5 295.223 710.279 293.987 709.648 292.926C700.918 278.256 660.967 266.328 561.5 326.086C458.3 388.086 430.833 330.919 430 294.586Z" fill="#676767"/>
</g>
</g>
<defs>
<filter id="filter0_f_354_106" x="-222.2" y="-125.2" width="766.9" height="811.4" filterUnits="userSpaceOnUse" color-interpolation-filters="sRGB">
<feFlood flood-opacity="0" result="BackgroundImageFix"/>
<feBlend mode="normal" in="SourceGraphic" in2="BackgroundImageFix" result="shape"/>
<feGaussianBlur stdDeviation="111.1" result="effect1_foregroundBlur_354_106"/>
</filter>
<filter id="filter1_f_354_106" x="35.8" y="-46.2" width="670.4" height="732.4" filterUnits="userSpaceOnUse" color-interpolation-filters="sRGB">
<feFlood flood-opacity="0" result="BackgroundImageFix"/>
<feBlend mode="normal" in="SourceGraphic" in2="BackgroundImageFix" result="shape"/>
<feGaussianBlur stdDeviation="111.1" result="effect1_foregroundBlur_354_106"/>
</filter>
<filter id="filter2_f_354_106" x="207.8" y="58.8" width="724.9" height="626.986" filterUnits="userSpaceOnUse" color-interpolation-filters="sRGB">
<feFlood flood-opacity="0" result="BackgroundImageFix"/>
<feBlend mode="normal" in="SourceGraphic" in2="BackgroundImageFix" result="shape"/>
<feGaussianBlur stdDeviation="111.1" result="effect1_foregroundBlur_354_106"/>
</filter>
</defs>
</svg>
