<svg width="1240" height="511" viewBox="0 0 1240 511" fill="none" xmlns="http://www.w3.org/2000/svg">
<path d="M266.88 275.08H298.88V357H266.88V275.08ZM510.015 322.824C509.588 330.931 506.644 337.715 501.183 343.176C495.722 348.637 487.658 352.733 476.991 355.464C466.41 358.195 453.012 359.56 436.799 359.56C424.426 359.56 413.332 358.877 403.519 357.512C393.706 356.232 385.343 354.013 378.431 350.856C371.519 347.613 366.228 343.219 362.559 337.672C358.89 332.125 357.055 325.128 357.055 316.68C357.055 308.232 358.89 301.192 362.559 295.56C366.228 289.843 371.519 285.32 378.431 281.992C385.343 278.579 393.706 276.147 403.519 274.696C413.332 273.245 424.426 272.52 436.799 272.52C453.012 272.52 466.452 274.013 477.119 277C487.786 279.901 495.85 284.211 501.311 289.928C506.772 295.645 509.716 302.6 510.143 310.792L476.863 310.792C475.839 308.061 473.962 305.672 471.231 303.624C468.5 301.491 464.404 299.827 458.943 298.632C453.482 297.437 446.1 296.84 436.799 296.84C425.876 296.84 417.002 297.523 410.175 298.888C403.348 300.168 398.356 302.259 395.199 305.16C392.042 308.061 390.463 311.901 390.463 316.68C390.463 321.032 392.042 324.573 395.199 327.304C398.356 330.035 403.348 332.04 410.175 333.32C417.002 334.6 425.876 335.24 436.799 335.24C446.1 335.24 453.439 334.685 458.815 333.576C464.276 332.467 468.372 330.973 471.103 329.096C473.834 327.133 475.711 325.043 476.735 322.824L510.015 322.824ZM526.835 357V275.08H625.779C633.544 275.08 640.499 275.976 646.643 277.768C652.872 279.475 657.779 282.376 661.363 286.472C665.032 290.568 666.867 296.157 666.867 303.24C666.867 307.933 666.014 311.816 664.307 314.888C662.6 317.96 660.254 320.349 657.267 322.056C654.28 323.763 650.867 325 647.027 325.768C643.187 326.536 639.176 327.005 634.995 327.176L625.651 325.384C635.806 325.469 643.614 325.896 649.075 326.664C654.622 327.432 658.462 328.84 660.595 330.888C662.814 332.851 663.923 335.709 663.923 339.464V357H631.923V343.304C631.923 340.744 631.411 338.824 630.387 337.544C629.448 336.179 627.315 335.24 623.987 334.728C620.744 334.216 615.71 333.96 608.883 333.96H558.835V357H526.835ZM558.835 312.584H625.779C628.339 312.584 630.472 312.157 632.179 311.304C633.971 310.451 634.867 308.829 634.867 306.44C634.867 304.221 633.971 302.728 632.179 301.96C630.472 301.107 628.339 300.68 625.779 300.68H558.835V312.584ZM716.585 322.44V332.68L813.865 332.68V357L684.585 357V275.08L813.609 275.08V299.4L716.585 299.4V309.64L795.945 309.64V322.44L716.585 322.44ZM851.452 344.584V325.384H939.004V344.584H851.452ZM822.78 357L877.692 275.08H913.276L968.7 357H933.5L886.012 283.656H905.084L857.98 357H822.78ZM957.215 275.08H1090.34V299.4H957.215V275.08ZM1007.78 297.736H1039.78V357H1007.78V297.736ZM1135.09 322.44V332.68L1232.37 332.68V357L1103.09 357V275.08L1232.11 275.08V299.4L1135.09 299.4V309.64L1214.45 309.64V322.44L1135.09 322.44Z" fill="#E2E3D9"/>
<path d="M266.88 394.08H298.88V476H266.88V394.08ZM510.015 441.824C509.588 449.931 506.644 456.715 501.183 462.176C495.722 467.637 487.658 471.733 476.991 474.464C466.41 477.195 453.012 478.56 436.799 478.56C424.426 478.56 413.332 477.877 403.519 476.512C393.706 475.232 385.343 473.013 378.431 469.856C371.519 466.613 366.228 462.219 362.559 456.672C358.89 451.125 357.055 444.128 357.055 435.68C357.055 427.232 358.89 420.192 362.559 414.56C366.228 408.843 371.519 404.32 378.431 400.992C385.343 397.579 393.706 395.147 403.519 393.696C413.332 392.245 424.426 391.52 436.799 391.52C453.012 391.52 466.452 393.013 477.119 396C487.786 398.901 495.85 403.211 501.311 408.928C506.772 414.645 509.716 421.6 510.143 429.792L476.863 429.792C475.839 427.061 473.962 424.672 471.231 422.624C468.5 420.491 464.404 418.827 458.943 417.632C453.482 416.437 446.1 415.84 436.799 415.84C425.876 415.84 417.002 416.523 410.175 417.888C403.348 419.168 398.356 421.259 395.199 424.16C392.042 427.061 390.463 430.901 390.463 435.68C390.463 440.032 392.042 443.573 395.199 446.304C398.356 449.035 403.348 451.04 410.175 452.32C417.002 453.6 425.876 454.24 436.799 454.24C446.1 454.24 453.439 453.685 458.815 452.576C464.276 451.467 468.372 449.973 471.103 448.096C473.834 446.133 475.711 444.043 476.735 441.824L510.015 441.824ZM526.835 476V394.08H625.779C633.544 394.08 640.499 394.976 646.643 396.768C652.872 398.475 657.779 401.376 661.363 405.472C665.032 409.568 666.867 415.157 666.867 422.24C666.867 426.933 666.014 430.816 664.307 433.888C662.6 436.96 660.254 439.349 657.267 441.056C654.28 442.763 650.867 444 647.027 444.768C643.187 445.536 639.176 446.005 634.995 446.176L625.651 444.384C635.806 444.469 643.614 444.896 649.075 445.664C654.622 446.432 658.462 447.84 660.595 449.888C662.814 451.851 663.923 454.709 663.923 458.464V476H631.923V462.304C631.923 459.744 631.411 457.824 630.387 456.544C629.448 455.179 627.315 454.24 623.987 453.728C620.744 453.216 615.71 452.96 608.883 452.96H558.835V476H526.835ZM558.835 431.584H625.779C628.339 431.584 630.472 431.157 632.179 430.304C633.971 429.451 634.867 427.829 634.867 425.44C634.867 423.221 633.971 421.728 632.179 420.96C630.472 420.107 628.339 419.68 625.779 419.68H558.835V431.584ZM716.585 441.44V451.68L813.865 451.68V476L684.585 476V394.08L813.609 394.08V418.4L716.585 418.4V428.64L795.945 428.64V441.44L716.585 441.44ZM851.452 463.584V444.384H939.004V463.584H851.452ZM822.78 476L877.692 394.08H913.276L968.7 476H933.5L886.012 402.656H905.084L857.98 476H822.78ZM957.215 394.08H1090.34V418.4H957.215V394.08ZM1007.78 416.736H1039.78V476H1007.78V416.736ZM1135.09 441.44V451.68L1232.37 451.68V476L1103.09 476V394.08L1232.11 394.08V418.4L1135.09 418.4V428.64L1214.45 428.64V441.44L1135.09 441.44Z" fill="#E2E3D9"/>
<path d="M266.88 37.08L298.88 37.08V119H266.88V37.08ZM510.015 84.824C509.588 92.9307 506.644 99.7147 501.183 105.176C495.722 110.637 487.658 114.733 476.991 117.464C466.41 120.195 453.012 121.56 436.799 121.56C424.426 121.56 413.332 120.877 403.519 119.512C393.706 118.232 385.343 116.013 378.431 112.856C371.519 109.613 366.228 105.219 362.559 99.672C358.89 94.1253 357.055 87.128 357.055 78.68C357.055 70.232 358.89 63.192 362.559 57.56C366.228 51.8427 371.519 47.32 378.431 43.992C385.343 40.5787 393.706 38.1467 403.519 36.696C413.332 35.2453 424.426 34.52 436.799 34.52C453.012 34.52 466.452 36.0133 477.119 39C487.786 41.9013 495.85 46.2107 501.311 51.928C506.772 57.6453 509.716 64.6 510.143 72.792L476.863 72.792C475.839 70.0613 473.962 67.672 471.231 65.624C468.5 63.4907 464.404 61.8267 458.943 60.632C453.482 59.4373 446.1 58.84 436.799 58.84C425.876 58.84 417.002 59.5227 410.175 60.888C403.348 62.168 398.356 64.2587 395.199 67.16C392.042 70.0613 390.463 73.9013 390.463 78.68C390.463 83.032 392.042 86.5733 395.199 89.304C398.356 92.0347 403.348 94.04 410.175 95.32C417.002 96.6 425.876 97.24 436.799 97.24C446.1 97.24 453.439 96.6853 458.815 95.576C464.276 94.4667 468.372 92.9733 471.103 91.096C473.834 89.1333 475.711 87.0427 476.735 84.824L510.015 84.824ZM526.835 119V37.08L625.779 37.08C633.544 37.08 640.499 37.976 646.643 39.768C652.872 41.4747 657.779 44.376 661.363 48.472C665.032 52.568 666.867 58.1573 666.867 65.24C666.867 69.9333 666.014 73.816 664.307 76.888C662.6 79.96 660.254 82.3493 657.267 84.056C654.28 85.7627 650.867 87 647.027 87.768C643.187 88.536 639.176 89.0053 634.995 89.176L625.651 87.384C635.806 87.4693 643.614 87.896 649.075 88.664C654.622 89.432 658.462 90.84 660.595 92.888C662.814 94.8507 663.923 97.7093 663.923 101.464V119L631.923 119V105.304C631.923 102.744 631.411 100.824 630.387 99.544C629.448 98.1787 627.315 97.24 623.987 96.728C620.744 96.216 615.71 95.96 608.883 95.96L558.835 95.96V119H526.835ZM558.835 74.584L625.779 74.584C628.339 74.584 630.472 74.1573 632.179 73.304C633.971 72.4507 634.867 70.8293 634.867 68.44C634.867 66.2213 633.971 64.728 632.179 63.96C630.472 63.1067 628.339 62.68 625.779 62.68L558.835 62.68V74.584ZM716.585 84.44V94.68L813.865 94.68V119L684.585 119V37.08L813.609 37.08V61.4L716.585 61.4V71.64L795.945 71.64V84.44L716.585 84.44ZM851.452 106.584V87.384L939.004 87.384V106.584L851.452 106.584ZM822.78 119L877.692 37.08L913.276 37.08L968.7 119H933.5L886.012 45.656L905.084 45.656L857.98 119L822.78 119ZM957.215 37.08L1090.34 37.08V61.4L957.215 61.4V37.08ZM1007.78 59.736L1039.78 59.736V119H1007.78V59.736ZM1135.09 84.44V94.68L1232.37 94.68V119L1103.09 119V37.08L1232.11 37.08V61.4L1135.09 61.4V71.64L1214.45 71.64V84.44L1135.09 84.44Z" fill="#E2E3D9"/>
<path d="M266.88 156.08H298.88V238H266.88V156.08ZM510.015 203.824C509.588 211.931 506.644 218.715 501.183 224.176C495.722 229.637 487.658 233.733 476.991 236.464C466.41 239.195 453.012 240.56 436.799 240.56C424.426 240.56 413.332 239.877 403.519 238.512C393.706 237.232 385.343 235.013 378.431 231.856C371.519 228.613 366.228 224.219 362.559 218.672C358.89 213.125 357.055 206.128 357.055 197.68C357.055 189.232 358.89 182.192 362.559 176.56C366.228 170.843 371.519 166.32 378.431 162.992C385.343 159.579 393.706 157.147 403.519 155.696C413.332 154.245 424.426 153.52 436.799 153.52C453.012 153.52 466.452 155.013 477.119 158C487.786 160.901 495.85 165.211 501.311 170.928C506.772 176.645 509.716 183.6 510.143 191.792L476.863 191.792C475.839 189.061 473.962 186.672 471.231 184.624C468.5 182.491 464.404 180.827 458.943 179.632C453.482 178.437 446.1 177.84 436.799 177.84C425.876 177.84 417.002 178.523 410.175 179.888C403.348 181.168 398.356 183.259 395.199 186.16C392.042 189.061 390.463 192.901 390.463 197.68C390.463 202.032 392.042 205.573 395.199 208.304C398.356 211.035 403.348 213.04 410.175 214.32C417.002 215.6 425.876 216.24 436.799 216.24C446.1 216.24 453.439 215.685 458.815 214.576C464.276 213.467 468.372 211.973 471.103 210.096C473.834 208.133 475.711 206.043 476.735 203.824L510.015 203.824ZM526.835 238V156.08H625.779C633.544 156.08 640.499 156.976 646.643 158.768C652.872 160.475 657.779 163.376 661.363 167.472C665.032 171.568 666.867 177.157 666.867 184.24C666.867 188.933 666.014 192.816 664.307 195.888C662.6 198.96 660.254 201.349 657.267 203.056C654.28 204.763 650.867 206 647.027 206.768C643.187 207.536 639.176 208.005 634.995 208.176L625.651 206.384C635.806 206.469 643.614 206.896 649.075 207.664C654.622 208.432 658.462 209.84 660.595 211.888C662.814 213.851 663.923 216.709 663.923 220.464V238H631.923V224.304C631.923 221.744 631.411 219.824 630.387 218.544C629.448 217.179 627.315 216.24 623.987 215.728C620.744 215.216 615.71 214.96 608.883 214.96H558.835V238H526.835ZM558.835 193.584H625.779C628.339 193.584 630.472 193.157 632.179 192.304C633.971 191.451 634.867 189.829 634.867 187.44C634.867 185.221 633.971 183.728 632.179 182.96C630.472 182.107 628.339 181.68 625.779 181.68H558.835V193.584ZM716.585 203.44V213.68L813.865 213.68V238L684.585 238V156.08L813.609 156.08V180.4L716.585 180.4V190.64L795.945 190.64V203.44L716.585 203.44ZM851.452 225.584V206.384H939.004V225.584H851.452ZM822.78 238L877.692 156.08H913.276L968.7 238H933.5L886.012 164.656H905.084L857.98 238L822.78 238ZM957.215 156.08L1090.34 156.08V180.4L957.215 180.4V156.08ZM1007.78 178.736H1039.78V238H1007.78V178.736ZM1135.09 203.44V213.68L1232.37 213.68V238L1103.09 238V156.08L1232.11 156.08V180.4L1135.09 180.4V190.64L1214.45 190.64V203.44L1135.09 203.44Z" fill="#E2E3D9"/>
<path opacity="0.5" d="M50 195.8L52.8 208.2C50.6667 209.267 48.4 211.6 46 215.2C43.7333 218.8 42.4 222.733 42 227L55.6 229.2V259.8H5V241.2C5 228.933 8.53333 218.733 15.6 210.6C22.8 202.467 34.2667 197.533 50 195.8ZM110.6 195.8L113.4 208.2C111.267 209.267 109 211.6 106.6 215.2C104.333 218.8 103 222.733 102.6 227L116.2 229.2V259.8H65.6V241.2C65.6 228.933 69.1333 218.733 76.2 210.6C83.4 202.467 94.8667 197.533 110.6 195.8Z" fill="#FF0000"/>
<path opacity="0.5" d="M1190 444.2L1187.2 431.8C1189.33 430.733 1191.6 428.4 1194 424.8C1196.27 421.2 1197.6 417.267 1198 413L1184.4 410.8V380.2H1235V398.8C1235 411.067 1231.47 421.267 1224.4 429.4C1217.2 437.533 1205.73 442.467 1190 444.2ZM1129.4 444.2L1126.6 431.8C1128.73 430.733 1131 428.4 1133.4 424.8C1135.67 421.2 1137 417.267 1137.4 413L1123.8 410.8V380.2H1174.4V398.8C1174.4 411.067 1170.87 421.267 1163.8 429.4C1156.6 437.533 1145.13 442.467 1129.4 444.2Z" fill="#FF0000"/>
</svg>
