<svg width="150" height="111" viewBox="0 0 150 111" fill="none" xmlns="http://www.w3.org/2000/svg">
<path d="M9.77824 0C30.0444 0 47.7666 10.8993 57.4281 27.1634C77.4866 8.95541 108.368 7.76799 129.861 25.5374C153.461 45.0496 156.802 80.0282 137.322 103.667C135.198 106.244 132.89 108.58 130.434 110.672C143.383 87.6905 138.439 58.0277 117.412 40.643C100.836 26.939 78.6742 24.5072 60.2005 32.4653C63.4008 39.4822 65.1883 47.2816 65.1883 55.5C65.1883 86.1518 40.3804 111 9.77824 111C6.44158 111 3.17425 110.702 0 110.136C25.9383 105.51 45.6318 82.8097 45.6318 55.5C45.6318 28.1901 25.9386 5.48664 0 0.860811C3.17407 0.294754 6.44178 0 9.77824 0Z" fill="#FF0000"/>
</svg>
