<svg width="377" height="415" viewBox="0 0 377 415" fill="none" xmlns="http://www.w3.org/2000/svg">
<path d="M270.19 84.5837C318.394 73.5311 359.637 81.5882 333.488 140.242C330.425 147.113 327.49 153.683 324.665 159.967C340.758 178.914 352.641 194.487 319.582 227.525C382.254 255.457 401.064 288.699 331.755 329.41C361.148 376.754 374.707 415.73 307.861 396.646C283.292 389.632 261.037 383.274 240.913 377.452C208.406 397.792 162.1 412.72 96.4907 414.083C-75.1487 417.65 37.887 345.326 43.8467 329.077C45.8779 323.539 48.4168 317.426 53.1939 311.035C26.6733 271.378 -2.98897 174.974 0.834602 140.243C6.27526 90.8234 82.3861 -34.2905 169.378 9.72871C193.481 21.9254 209.184 40.7341 220.098 62.7329C236.931 66.5311 255.176 74.2961 270.19 84.5837Z" fill="#FF0000"/>
<path d="M240.913 377.452C177.74 342.577 -62.6333 134.297 129.07 173.927C204.49 189.518 273.76 207.103 319.582 227.525M228.399 291.627C184.098 309.263 107.019 279.937 82.3861 321.944C57.7526 363.952 -4.60606 189.663 0.834602 140.243C6.27526 90.8234 82.3861 -34.2905 169.378 9.72871C253.401 52.2463 235.352 175.116 268.13 233.371C300.908 291.627 422.381 429.34 307.861 396.646C193.341 363.951 129.109 345.524 96.4907 329.077C63.8726 312.631 14.6441 122.805 71.8572 113.492C129.07 104.179 153.335 98.2342 172.378 70.2953C191.42 42.3563 288.194 76.2405 300.908 121.616C313.622 166.992 371.034 176.105 319.582 227.525M228.399 291.627C191.051 279.937 176.947 254.375 118.542 273.001C60.1365 291.627 49.8064 312.829 43.8467 329.077C37.887 345.326 -75.1487 417.65 96.4907 414.083C268.13 410.516 307.663 314.118 313.622 270.822C318.39 236.184 269.653 264.858 244.689 283.525M228.399 291.627C234.254 289.297 239.644 286.627 244.689 283.525M319.582 227.525C390.233 259.013 405.142 297.248 300.908 345.326C129.07 424.585 131.653 158.868 184.098 121.616C236.544 84.3642 376.597 43.5456 333.488 140.242C296.077 224.159 277.817 263.156 244.689 283.525" stroke="black"/>
</svg>
