<svg width="761" height="136" viewBox="0 0 761 136" fill="none" xmlns="http://www.w3.org/2000/svg">
<path d="M2.66675 -0.000651121C1.19399 -0.000651159 8.14089e-05 1.19326 8.13007e-05 2.66602C8.11926e-05 4.13877 1.19399 5.33268 2.66675 5.33268C4.13951 5.33268 5.33341 4.13878 5.33341 2.66602C5.33341 1.19326 4.13951 -0.000651083 2.66675 -0.000651121ZM2.66674 129.999C1.19398 129.999 7.18623e-05 131.193 7.17542e-05 132.666C7.1646e-05 134.139 1.19398 135.333 2.66674 135.333C4.1395 135.333 5.33341 134.139 5.33341 132.666C5.33341 131.193 4.1395 129.999 2.66674 129.999ZM2.66675 2.66602L2.16675 2.66602L2.16674 132.666L2.66674 132.666L3.16674 132.666L3.16675 2.66602L2.66675 2.66602Z" fill="#FF0000"/>
<path d="M757.827 -0.000651121C756.354 -0.000651159 755.16 1.19326 755.16 2.66602C755.16 4.13877 756.354 5.33268 757.827 5.33268C759.3 5.33268 760.494 4.13878 760.494 2.66602C760.494 1.19326 759.3 -0.000651083 757.827 -0.000651121ZM757.827 129.999C756.354 129.999 755.16 131.193 755.16 132.666C755.16 134.139 756.354 135.333 757.827 135.333C759.3 135.333 760.494 134.139 760.494 132.666C760.494 131.193 759.3 129.999 757.827 129.999ZM757.827 2.66602L757.327 2.66602L757.327 132.666L757.827 132.666L758.327 132.666L758.327 2.66602L757.827 2.66602Z" fill="#FF0000"/>
<rect opacity="0.2" x="1.8269" y="2.66602" width="756" height="130" fill="#FF0000"/>
</svg>
