<svg width="32" height="24" viewBox="0 0 32 24" fill="none" xmlns="http://www.w3.org/2000/svg">
<path d="M2.08603 0C6.40947 0 10.1902 2.35661 12.2513 5.87316C16.5305 1.9363 23.1185 1.67956 27.7037 5.5216C32.7384 9.74045 33.4511 17.3034 29.2953 22.4145C28.8423 22.9717 28.3499 23.4768 27.8259 23.929C30.5884 18.9601 29.5337 12.5465 25.0479 8.78768C21.5117 5.82464 16.7838 5.29885 12.8428 7.01953C13.5255 8.5367 13.9068 10.223 13.9068 12C13.9068 18.6274 8.61448 24 2.08603 24C1.3742 24 0.677173 23.9356 0 23.8132C5.53351 22.813 9.73478 17.9048 9.73478 12C9.73478 6.09515 5.53356 1.1863 0 0.186121C0.677136 0.0637306 1.37425 0 2.08603 0Z" fill="#050506"/>
</svg>
