<svg width="194" height="144" viewBox="0 0 194 144" fill="none" xmlns="http://www.w3.org/2000/svg">
<path d="M12.6465 0C38.8574 0 61.7782 14.1397 74.2736 35.239C100.216 11.6178 140.156 10.0774 167.953 33.1296C198.477 58.4427 202.797 103.82 177.603 134.487C174.856 137.83 171.871 140.861 168.694 143.574C185.442 113.761 179.048 75.2792 151.853 52.7261C130.415 34.9478 101.752 31.7931 77.8593 42.1172C81.9984 51.2202 84.3102 61.3383 84.3102 72C84.3102 111.765 52.2253 144 12.6465 144C8.33111 144 4.10536 143.614 0 142.879C33.5469 136.878 59.0171 107.429 59.0171 72C59.0171 36.5709 33.5472 7.1178 0 1.11673C4.10514 0.382384 8.33136 0 12.6465 0Z" fill="#FF0000"/>
</svg>
