<svg width="748" height="271" viewBox="0 0 748 271" fill="none" xmlns="http://www.w3.org/2000/svg">
<path d="M185.719 45.6762C187.22 49.8315 191.806 51.9829 195.961 50.4815C200.117 48.98 202.268 44.3943 200.767 40.239L193.243 42.9576L185.719 45.6762ZM172.206 137.477L180.031 139.142L180.036 139.121L180.04 139.1L172.206 137.477ZM157.838 197.207L149.974 195.737C149.279 199.455 151.283 203.152 154.777 204.599C158.271 206.046 162.302 204.848 164.439 201.727L157.838 197.207ZM259.651 32.2665C260.449 27.921 257.574 23.7509 253.228 22.9524C248.883 22.1539 244.713 25.0293 243.914 29.3748L251.782 30.8206L259.651 32.2665ZM233.919 134.143L225.999 133.016L233.919 134.143ZM221.24 200.54C221.185 204.958 224.721 208.585 229.139 208.64C233.557 208.696 237.184 205.16 237.239 200.742L229.24 200.641L221.24 200.54ZM294.055 118.845C292.177 122.844 293.896 127.609 297.894 129.488C301.893 131.366 306.658 129.648 308.537 125.649L301.296 122.247L294.055 118.845ZM292.353 104.731L297.487 110.866H297.487L292.353 104.731ZM273.524 142.185L265.731 143.992V143.992L273.524 142.185ZM300.133 135.407L295.912 128.611V128.611L300.133 135.407ZM317.924 104.077L325.788 105.545V105.545L317.924 104.077ZM316.653 99.7295L324.152 102.514L324.152 102.514L316.653 99.7295ZM314.331 133.466L307.032 136.741H307.032L314.331 133.466ZM325.206 136.796L325.76 144.777L325.206 136.796ZM368.508 115.762L363.212 109.765V109.765L368.508 115.762ZM380.971 63.5524L373.428 66.2153L373.428 66.2165L380.971 63.5524ZM377.446 183.171L385.422 183.79V183.79L377.446 183.171ZM349.349 253.566L343.336 248.289L343.336 248.289L349.349 253.566ZM332.812 243.498L340.669 245.003L332.812 243.498ZM411.764 155.46L416.149 162.151L416.15 162.151L411.764 155.46ZM412.402 155.042L416.788 161.733L416.788 161.733L412.402 155.042ZM449.2 134.543L453.678 141.172L449.2 134.543ZM461.656 112.106L469.52 113.574V113.574L461.656 112.106ZM458.666 103.685L456.779 111.46L456.779 111.46L458.666 103.685ZM423.269 129.825L417.448 124.337L423.269 129.825ZM417.722 143.81L425.114 140.751L425.114 140.751L417.722 143.81ZM430.447 150.957L430.89 142.969H430.89L430.447 150.957ZM466.012 128.515L472.258 133.513L472.258 133.513L466.012 128.515ZM477.129 100.236L469.163 100.978V100.978L477.129 100.236ZM468.911 128.577L460.922 128.151V128.151L468.911 128.577ZM474.904 138.406L470.328 144.968L470.328 144.968L474.904 138.406ZM509.333 139.257L507.474 131.476V131.476L509.333 139.257ZM536.349 111.627L543.495 115.223V115.223L536.349 111.627ZM544.334 72.0675L536.346 72.5023V72.5023L544.334 72.0675ZM517.716 18.4853L524.934 15.0365V15.0365L517.716 18.4853ZM715.409 19.7645L717.524 27.48V27.48L715.409 19.7645ZM571.417 40.3117L570.438 32.3717L571.417 40.3117ZM111.982 96.2664L110.972 88.3304L111.982 96.2664ZM11.0706 112.626L10.37 120.596L11.0706 112.626ZM32.9153 120.846C37.3322 120.737 40.8243 117.068 40.7151 112.651C40.606 108.234 36.9368 104.742 32.5199 104.851L32.7176 112.849L32.9153 120.846ZM193.243 42.9576L200.767 40.239C200.58 39.7213 199.867 37.825 197.852 36.3882C195.044 34.3863 191.811 34.6439 189.615 35.7303C187.978 36.5403 187.063 37.6919 186.785 38.0499C186.397 38.5503 186.14 39.0003 186.002 39.2563C185.529 40.1326 185.219 41.0706 185.073 41.5183C184.689 42.6983 184.232 44.3793 183.723 46.3896C182.686 50.491 181.248 56.6985 179.45 64.7977C175.848 81.0262 170.738 105.138 164.373 135.853L172.206 137.477L180.04 139.1C186.401 108.401 191.493 84.3791 195.07 68.2646C196.862 60.1923 198.257 54.1759 199.234 50.3149C199.733 48.344 200.08 47.1091 200.285 46.4778C200.435 46.0199 200.367 46.3284 200.082 46.8562C199.991 47.0251 199.778 47.4055 199.43 47.854C199.192 48.1601 198.314 49.2774 196.711 50.0709C194.548 51.1408 191.346 51.3995 188.564 49.4167C186.575 47.9988 185.886 46.1392 185.719 45.6762L193.243 42.9576ZM172.206 137.477L164.382 135.811C158.805 162.006 154.913 178.575 152.592 187.293L160.323 189.351L168.054 191.408C170.482 182.285 174.443 165.394 180.031 139.142L172.206 137.477ZM160.323 189.351L152.592 187.293C151.976 189.606 151.493 191.285 151.135 192.408C150.955 192.976 150.831 193.321 150.763 193.498C150.728 193.586 150.731 193.572 150.77 193.489C150.787 193.452 150.94 193.121 151.237 192.688L157.838 197.207L164.439 201.727C165.108 200.75 165.512 199.714 165.674 199.299C165.912 198.688 166.148 197.993 166.381 197.262C166.851 195.788 167.409 193.831 168.054 191.408L160.323 189.351ZM157.838 197.207L165.702 198.678C165.665 198.876 165.659 198.845 165.798 198.369C165.911 197.981 166.072 197.459 166.281 196.803C166.699 195.497 167.26 193.812 167.902 191.911L160.323 189.351L152.744 186.79C152.096 188.708 151.5 190.495 151.041 191.933C150.654 193.141 150.172 194.682 149.974 195.737L157.838 197.207ZM251.782 30.8206L243.914 29.3748C236.926 67.4061 229.889 105.69 225.999 133.016L233.919 134.143L241.84 135.271C245.673 108.339 252.638 70.4288 259.651 32.2665L251.782 30.8206ZM233.919 134.143L225.999 133.016C222.071 160.611 221.549 175.991 221.24 200.54L229.24 200.641L237.239 200.742C237.543 176.564 238.044 161.932 241.84 135.271L233.919 134.143ZM301.296 122.247L308.537 125.649C310.726 120.99 313.131 115.886 314.749 111.486C315.558 109.287 316.291 106.947 316.67 104.714C317 102.767 317.328 99.4848 315.85 96.3319L308.607 99.7279L301.363 103.124C300.701 101.712 301.083 100.926 300.895 102.041C300.754 102.87 300.396 104.157 299.732 105.963C298.405 109.572 296.339 113.986 294.055 118.845L301.296 122.247ZM308.607 99.7279L315.85 96.3319C313.972 92.3272 310.325 90.687 307.328 90.3091C304.609 89.9664 301.981 90.5295 299.924 91.1981C295.69 92.5748 291.151 95.3058 287.22 98.5953L292.353 104.731L297.487 110.866C300.303 108.51 303.074 106.998 304.871 106.414C305.83 106.102 305.898 106.256 305.326 106.183C304.975 106.139 304.251 105.988 303.423 105.462C302.533 104.896 301.808 104.072 301.363 103.124L308.607 99.7279ZM292.353 104.731L287.22 98.5953C279.146 105.351 273.26 113.615 269.63 121.448C266.161 128.932 264.179 137.3 265.731 143.992L273.524 142.185L281.317 140.377C280.949 138.787 281.273 134.375 284.146 128.176C286.857 122.326 291.347 116.004 297.487 110.866L292.353 104.731ZM273.524 142.185L265.731 143.992C266.479 147.215 268.605 149.491 271.06 150.729C273.198 151.808 275.378 152.023 276.928 152.036C280.06 152.063 283.494 151.258 286.466 150.34C292.593 148.448 299.569 145.175 304.354 142.203L300.133 135.407L295.912 128.611C292.242 130.89 286.511 133.58 281.745 135.052C279.272 135.816 277.714 136.042 277.065 136.037C276.725 136.034 277.319 135.966 278.268 136.445C279.534 137.084 280.868 138.442 281.317 140.377L273.524 142.185ZM300.133 135.407L304.354 142.203C311.803 137.576 316.59 131.687 319.702 125.761L312.619 122.042L305.536 118.322C303.586 122.036 300.657 125.664 295.912 128.611L300.133 135.407ZM312.619 122.042L319.702 125.761C323.887 117.79 325.022 109.648 325.788 105.545L317.924 104.077L310.059 102.608C309.148 107.492 308.362 112.94 305.536 118.322L312.619 122.042ZM317.924 104.077L325.788 105.545C326.263 102.998 326.414 99.8312 325.794 97.3C325.642 96.6832 325.272 95.3459 324.328 94.0072C323.341 92.6087 320.407 89.6534 315.815 90.6286C312.454 91.3425 310.803 93.8091 310.43 94.3693C309.808 95.3056 309.409 96.2545 309.153 96.9446L316.653 99.7295L324.152 102.514C324.207 102.366 324.104 102.702 323.758 103.223C323.662 103.367 322.267 105.615 319.139 106.279C314.781 107.205 312.057 104.369 311.254 103.231C310.493 102.152 310.28 101.215 310.254 101.111C310.137 100.633 310.301 101.316 310.059 102.609L317.924 104.077ZM316.653 99.7295L309.153 96.9446C305.936 105.606 304.634 114.629 304.619 122.025L312.619 122.042L320.619 122.058C320.63 116.345 321.662 109.22 324.152 102.514L316.653 99.7295ZM312.619 122.042L304.619 122.025C304.608 127.376 305.266 132.804 307.032 136.741L314.331 133.466L321.63 130.191C321.246 129.334 320.61 126.599 320.619 122.058L312.619 122.042ZM314.331 133.466L307.032 136.741C308.844 140.779 312.281 142.956 315.643 143.97C318.794 144.919 322.319 145.016 325.76 144.777L325.206 136.796L324.651 128.815C323.4 128.902 322.411 128.904 321.647 128.854C320.872 128.803 320.442 128.705 320.261 128.651C320.087 128.598 320.285 128.628 320.63 128.899C321.016 129.202 321.389 129.652 321.63 130.191L314.331 133.466ZM325.206 136.796L325.76 144.777C343.623 143.535 361.309 132.792 373.803 121.758L368.508 115.762L363.212 109.765C351.888 119.766 337.452 127.926 324.651 128.815L325.206 136.796ZM368.508 115.762L373.803 121.758C380.619 115.739 384.83 108.501 387.342 101.302L379.788 98.6665L372.234 96.0314C370.464 101.106 367.631 105.863 363.212 109.765L368.508 115.762ZM379.788 98.6665L387.342 101.302C390.727 91.5982 391.08 81.8308 390.639 74.612C390.21 67.567 388.966 62.1661 388.515 60.8883L380.971 63.5524L373.428 66.2165C373.215 65.6136 374.293 69.4181 374.669 75.5855C375.034 81.5792 374.676 89.0314 372.234 96.0314L379.788 98.6665ZM380.971 63.5524L388.515 60.8894C388.479 60.7871 388.442 60.6853 388.404 60.5839L380.915 63.3979L373.426 66.2118C373.425 66.2089 373.426 66.21 373.428 66.2153L380.971 63.5524ZM380.915 63.3979L388.404 60.5831C388.229 60.119 387.865 59.1994 387.232 58.2686C386.923 57.8146 386.262 56.9229 385.156 56.1275C383.962 55.2688 381.801 54.2383 379.051 54.6964C376.43 55.1332 374.821 56.674 374.073 57.5858C373.323 58.4994 372.928 59.3803 372.74 59.8468C372.356 60.7989 372.186 61.6889 372.105 62.1653L379.991 63.5092L387.878 64.8531C387.877 64.8561 387.874 64.8748 387.867 64.9071C387.861 64.9389 387.849 64.9918 387.832 65.0619C387.803 65.179 387.728 65.4615 387.578 65.8324C387.452 66.1445 387.122 66.9057 386.442 67.7352C385.763 68.5627 384.226 70.0548 381.681 70.4788C379.008 70.9243 376.927 69.9171 375.816 69.1185C374.793 68.3833 374.22 67.5884 374.003 67.2686C373.742 66.8851 373.591 66.5788 373.531 66.4516C373.462 66.3061 373.428 66.2168 373.427 66.2126L380.915 63.3979ZM379.991 63.5092L372.105 62.1653C371.663 64.7613 371.614 69.7905 371.623 75.4969C371.633 81.5554 371.732 89.5786 371.788 98.716L379.788 98.6665L387.788 98.6169C387.73 89.309 387.632 81.5049 387.623 75.4717C387.618 72.4704 387.636 70.0078 387.689 68.108C387.715 67.159 387.749 66.3967 387.788 65.8059C387.808 65.5126 387.828 65.2836 387.846 65.1108C387.855 65.0257 387.863 64.9612 387.869 64.9153C387.875 64.8686 387.878 64.8493 387.878 64.8531L379.991 63.5092ZM379.788 98.6665L371.788 98.716C371.924 120.622 371.824 149.736 369.76 178.663L377.739 179.232L385.719 179.802C387.829 150.232 387.924 120.612 387.788 98.6169L379.788 98.6665ZM377.739 179.232L369.76 178.663C369.667 179.96 369.571 181.256 369.47 182.551L377.446 183.171L385.422 183.79C385.525 182.461 385.624 181.131 385.719 179.802L377.739 179.232ZM377.446 183.171L369.47 182.551C366.564 219.984 352.813 237.489 343.336 248.289L349.349 253.566L355.363 258.842C366.357 246.313 382.171 225.669 385.422 183.79L377.446 183.171ZM349.349 253.566L343.336 248.289C341.09 250.849 339.139 252.64 337.7 253.589C336.988 254.059 336.721 254.106 336.865 254.07C337.075 254.017 338.029 253.844 339.228 254.371L336.008 261.695L332.789 269.019C338.479 271.519 343.82 268.72 346.509 266.946C349.683 264.853 352.729 261.844 355.363 258.842L349.349 253.566ZM336.008 261.695L339.228 254.371C340.425 254.898 340.824 255.646 340.778 255.567C340.746 255.511 340.526 255.073 340.337 254.082C339.962 252.107 339.909 248.971 340.669 245.003L332.812 243.498L324.955 241.993C323.911 247.442 323.782 252.668 324.619 257.07C325.331 260.818 327.286 266.599 332.789 269.019L336.008 261.695ZM332.812 243.498L340.669 245.003C345.347 220.59 362.004 201.815 382.69 185.516L377.739 179.232L372.788 172.949C351.037 190.087 330.718 211.913 324.955 241.993L332.812 243.498ZM377.739 179.232L382.69 185.516C393.469 177.024 405.021 169.445 416.149 162.151L411.764 155.46L407.378 148.77C396.339 156.006 384.203 163.955 372.788 172.949L377.739 179.232ZM411.764 155.46L416.15 162.151L416.788 161.733L412.402 155.042L408.016 148.351L407.378 148.77L411.764 155.46ZM412.402 155.042L416.788 161.733C419.632 159.868 422.919 158.08 426.709 156.133L423.054 149.017L419.398 141.901C415.49 143.908 411.591 146.008 408.016 148.351L412.402 155.042ZM423.054 149.017L426.709 156.133C434.376 152.195 444.098 147.644 453.678 141.172L449.2 134.543L444.721 127.914C436.171 133.69 427.707 137.633 419.398 141.901L423.054 149.017ZM449.2 134.543L453.678 141.172C465.393 133.257 468.033 121.543 469.52 113.574L461.656 112.106L453.792 110.638C452.391 118.143 450.646 123.91 444.721 127.914L449.2 134.543ZM461.656 112.106L469.52 113.574C470.03 110.841 470.15 107.538 469.196 104.4C468.197 101.113 465.637 97.1452 460.553 95.9111L458.666 103.685L456.779 111.46C455.905 111.248 455.12 110.757 454.563 110.144C454.064 109.594 453.912 109.133 453.887 109.052C453.861 108.965 453.904 109.069 453.909 109.404C453.915 109.725 453.883 110.148 453.792 110.638L461.656 112.106ZM458.666 103.685L460.553 95.9112C455.9 94.7814 451.459 96.0872 448.024 97.7041C444.487 99.3688 440.978 101.852 437.669 104.566C431.055 109.992 423.965 117.425 417.448 124.337L423.269 129.825L429.09 135.313C435.739 128.26 442.132 121.6 447.817 116.936C450.659 114.605 453.004 113.044 454.837 112.181C456.772 111.271 457.218 111.566 456.779 111.46L458.666 103.685ZM423.269 129.825L417.448 124.337C411.675 130.461 406.82 138.389 410.331 146.87L417.722 143.81L425.114 140.751C425.267 141.121 425.042 141.236 425.328 140.497C425.699 139.541 426.706 137.841 429.09 135.313L423.269 129.825ZM417.722 143.81L410.331 146.87C412.114 151.178 415.721 154.253 419.413 156.141L423.054 149.017L426.695 141.894C426.036 141.557 425.59 141.215 425.323 140.955C425.05 140.689 425.049 140.594 425.114 140.751L417.722 143.81ZM423.054 149.017L419.413 156.141C422.538 157.738 426.173 158.732 430.005 158.945L430.447 150.957L430.89 142.969C429.221 142.877 427.774 142.445 426.695 141.894L423.054 149.017ZM430.447 150.957L430.005 158.945C439.038 159.445 447.232 155.94 454.102 151.168C460.983 146.388 467.107 139.951 472.258 133.513L466.012 128.515L459.765 123.517C455.132 129.307 450.111 134.459 444.974 138.027C439.826 141.603 435.131 143.204 430.89 142.969L430.447 150.957ZM466.012 128.515L472.258 133.513C473.745 131.655 475.064 129.787 476.233 127.936L469.469 123.664L462.706 119.391C461.842 120.758 460.867 122.14 459.765 123.517L466.012 128.515ZM469.469 123.664L476.233 127.936C480.316 121.472 482.572 115.22 483.789 110.293C484.947 105.607 485.29 101.589 485.094 99.4937L477.129 100.236L469.163 100.978C469.127 100.593 469.192 102.666 468.256 106.455C467.38 110.003 465.726 114.609 462.706 119.391L469.469 123.664ZM477.129 100.236L485.094 99.4939C485.031 98.8115 484.907 97.8649 484.604 96.8758C484.432 96.315 483.642 93.6819 480.941 91.9849C479.295 90.9509 477.323 90.521 475.362 90.8074C473.596 91.0654 472.319 91.8294 471.589 92.3663C470.238 93.3613 469.454 94.5553 469.143 95.0473C467.87 97.0631 466.831 100.157 466.069 102.66C464.347 108.309 462.51 116.288 461.562 122.447L469.469 123.664L477.376 124.88C478.206 119.484 479.873 112.25 481.374 107.324C482.222 104.54 482.725 103.506 482.671 103.591C482.665 103.6 482.166 104.448 481.075 105.251C480.476 105.692 479.323 106.399 477.675 106.639C475.832 106.909 473.971 106.502 472.43 105.533C469.937 103.968 469.328 101.635 469.306 101.561C469.152 101.059 469.145 100.785 469.163 100.978L477.129 100.236ZM469.469 123.664L461.562 122.447C461.253 124.456 461.014 126.431 460.922 128.151L468.911 128.577L476.899 129.003C476.951 128.024 477.107 126.628 477.376 124.88L469.469 123.664ZM468.911 128.577L460.922 128.151C460.46 136.812 466.386 142.219 470.328 144.968L474.904 138.406L479.48 131.844C478.254 130.989 477.538 130.267 477.173 129.734C476.888 129.318 476.891 129.148 476.899 129.003L468.911 128.577ZM474.904 138.406L470.328 144.968C475.773 148.765 482.668 149.937 489.306 149.97C496.092 150.004 503.615 148.849 511.193 147.038L509.333 139.257L507.474 131.476C500.605 133.118 494.44 133.996 489.386 133.971C484.183 133.945 481.087 132.965 479.48 131.844L474.904 138.406ZM509.333 139.257L511.193 147.038C529.393 142.688 538.069 126.008 543.495 115.223L536.349 111.627L529.202 108.032C523.327 119.708 517.513 129.077 507.474 131.476L509.333 139.257ZM536.349 111.627L543.495 115.223C551.77 98.777 552.903 82.2973 552.322 71.6327L544.334 72.0675L536.346 72.5023C536.828 81.3658 535.842 94.8348 529.202 108.032L536.349 111.627ZM544.334 72.0675L552.322 71.6327C551.713 60.4392 546.609 49.6646 541.368 40.7735L534.476 44.836L527.584 48.8985C532.486 57.2136 535.951 65.2559 536.346 72.5023L544.334 72.0675ZM534.476 44.836L541.368 40.7735C538.076 35.189 534.48 29.948 531.493 25.5416C528.357 20.9146 526.124 17.5278 524.934 15.0365L517.716 18.4853L510.497 21.9341C512.315 25.7386 515.325 30.2052 518.249 34.5186C521.322 39.0526 524.602 43.8392 527.584 48.8985L534.476 44.836ZM517.716 18.4853L524.934 15.0365C525.293 15.7869 525.735 17.1286 525.512 18.8342C525.279 20.6102 524.436 21.937 523.638 22.763C522.403 24.0416 521.235 24.1898 521.932 23.9991C522.918 23.7294 525.21 23.4196 529.586 23.1406C538.302 22.585 551.01 22.3294 570.062 21.3201L569.639 13.3313L569.216 5.34254C551.23 6.29535 537.029 6.63368 528.568 7.173C524.357 7.44149 520.495 7.80436 517.71 8.56627C516.521 8.8914 514.063 9.64511 512.129 11.6482C510.981 12.8364 509.936 14.5552 509.647 16.7566C509.368 18.8875 509.902 20.6879 510.497 21.9341L517.716 18.4853ZM569.639 13.3313L570.062 21.3201C607.031 19.3618 669.842 16.9291 704.071 16.2165L703.904 8.21821L703.737 0.219941C669.31 0.936718 606.324 3.37676 569.216 5.34254L569.639 13.3313ZM703.904 8.21821L704.071 16.2165C721.329 15.8572 730.398 15.9682 734.754 16.3837C735.811 16.4845 736.342 16.5824 736.531 16.6268C736.993 16.7355 735.905 16.5912 734.66 15.5637C733.897 14.934 732.811 13.7491 732.287 11.8952C731.746 9.98208 732.063 8.27792 732.521 7.12468C732.936 6.07749 733.484 5.41505 733.72 5.14901C733.985 4.85086 734.188 4.68715 734.217 4.66298L739.256 10.8769L744.295 17.0907C744.781 16.696 746.479 15.3284 747.393 13.0255C747.949 11.6247 748.288 9.68299 747.683 7.54267C747.095 5.46158 745.858 4.05978 744.845 3.22382C743.1 1.78378 741.118 1.26932 740.198 1.05265C739.004 0.771652 737.666 0.588839 736.273 0.455951C730.828 -0.0634079 720.807 -0.135441 703.737 0.219941L703.904 8.21821ZM739.256 10.8769L734.217 4.66298C734.278 4.61413 733.853 4.93292 732.529 5.55726C731.328 6.12328 729.734 6.78115 727.775 7.50442C723.866 8.948 718.841 10.529 713.295 12.049L715.409 19.7645L717.524 27.48C723.374 25.8766 728.859 24.16 733.317 22.5138C735.542 21.6921 737.596 20.857 739.351 20.0297C740.982 19.2607 742.821 18.2859 744.295 17.0907L739.256 10.8769ZM715.409 19.7645L713.295 12.049C702.603 14.9795 690.452 17.5817 570.438 32.3717L571.417 40.3117L572.395 48.2516C691.816 33.5346 705.423 30.7965 717.524 27.48L715.409 19.7645ZM571.417 40.3117L570.438 32.3717C559.033 33.7773 546.66 35.292 533.508 36.8948L534.476 44.836L535.444 52.7773C548.601 51.1739 560.981 49.6583 572.395 48.2516L571.417 40.3117ZM534.476 44.836L533.508 36.8948C488.821 42.3408 435.161 48.8025 379.958 55.4553L380.915 63.3979L381.872 71.3404C437.071 64.6882 490.744 58.2249 535.444 52.7773L534.476 44.836ZM380.915 63.3979L379.958 55.4553C379.652 55.4923 379.341 55.5297 379.034 55.5667L379.991 63.5092L380.949 71.4517C381.257 71.4145 381.563 71.3777 381.872 71.3404L380.915 63.3979ZM379.991 63.5092L379.034 55.5667C280.304 67.4652 176.758 79.9615 110.972 88.3304L111.982 96.2664L112.992 104.202C178.713 95.8419 282.197 83.3528 380.948 71.4517L379.991 63.5092ZM111.982 96.2664L110.972 88.3304C54.2418 95.5473 27.0997 99.5168 14.9592 101.777C11.9274 102.341 9.64201 102.833 7.99951 103.281C7.20094 103.499 6.33074 103.766 5.52271 104.106C5.12197 104.274 4.5471 104.539 3.93449 104.929C3.4458 105.24 2.23245 106.059 1.27424 107.573C0.0601454 109.491 -0.602515 112.411 0.748879 115.348C1.7919 117.615 3.53281 118.703 4.14955 119.059C5.48822 119.834 6.82067 120.102 7.19475 120.18C8.30549 120.41 9.58756 120.527 10.37 120.596L11.0706 112.626L11.7712 104.657C11.3803 104.623 11.0568 104.591 10.7914 104.56C10.5036 104.526 10.4092 104.506 10.4432 104.513C10.4636 104.517 10.6075 104.547 10.8278 104.616C10.9999 104.67 11.5225 104.84 12.1625 105.211C12.6387 105.486 14.2841 106.487 15.2838 108.659C16.592 111.502 15.9383 114.322 14.7927 116.131C13.903 117.537 12.8177 118.241 12.5238 118.428C12.106 118.694 11.7927 118.826 11.7275 118.854C11.5906 118.911 11.6875 118.86 12.21 118.717C13.2096 118.444 14.9821 118.047 17.8874 117.507C29.4955 115.346 56.1708 111.431 112.992 104.202L111.982 96.2664ZM11.0706 112.626L10.37 120.596C17.6265 121.234 25.4496 121.031 32.9153 120.846L32.7176 112.849L32.5199 104.851C24.8392 105.041 17.9613 105.201 11.7712 104.657L11.0706 112.626Z" fill="#FF0000"/>
</svg>
