<svg width="171" height="24" viewBox="0 0 171 24" fill="none" xmlns="http://www.w3.org/2000/svg">
<g clip-path="url(#clip0_354_67)">
<mask id="mask0_354_67" style="mask-type:luminance" maskUnits="userSpaceOnUse" x="0" y="0" width="24" height="24">
<path d="M0 0H24V24H0V0Z" fill="white"/>
</mask>
<g mask="url(#mask0_354_67)">
<path d="M22 7H15V5H22V7ZM23.726 17C23.284 18.297 21.697 20 18.625 20C15.551 20 13.061 18.271 13.061 14.325C13.061 10.415 15.386 8.405 18.527 8.405C21.609 8.405 23.491 10.187 23.902 12.831C23.98 13.337 24.011 14.019 23.997 14.971H15.97C16.1 18.182 19.453 18.283 20.558 17H23.726ZM16.04 13H21.005C20.9 11.453 19.869 10.781 18.528 10.781C17.062 10.781 16.251 11.549 16.04 13ZM6.466 19.988H0V5.021H6.953C12.429 5.102 12.533 10.465 9.673 11.927C13.134 13.187 13.25 19.988 6.466 19.988ZM3 11H6.584C9.092 11 9.49 8 6.272 8H3V11ZM6.391 14H3V17.016H6.341C9.396 17.016 9.209 14 6.391 14Z" fill="#F7F9F8"/>
</g>
</g>
<mask id="mask1_354_67" style="mask-type:luminance" maskUnits="userSpaceOnUse" x="50" y="1" width="22" height="22">
<path d="M71 12C71.0016 13.3172 70.7423 14.6216 70.2369 15.8379C69.7315 17.0542 68.9901 18.1584 68.0555 19.0865C67.1285 20.0118 66.0282 20.7453 64.8176 21.2452C63.607 21.7451 62.3098 22.0016 61 22C55.477 22 51 17.523 51 12C50.9964 9.43587 51.9814 6.96903 53.75 5.11251C54.6831 4.12774 55.8074 3.34376 57.054 2.80858C58.3006 2.27339 59.6434 1.99825 61 2.00001C62.3098 1.99839 63.607 2.25487 64.8176 2.75478C66.0282 3.25469 67.1285 3.98824 68.0555 4.91351C68.9901 5.84165 69.7315 6.94579 70.2369 8.16211C70.7423 9.37844 71.0016 10.6829 71 12Z" fill="#555555" stroke="white" stroke-width="2" stroke-linecap="round" stroke-linejoin="round"/>
<path d="M70.9999 12.0008C69.5409 12.0008 65.5159 11.4508 61.9134 13.0323C57.9999 14.7508 55.1664 17.4168 53.9314 19.0743" stroke="white" stroke-width="2" stroke-linecap="round" stroke-linejoin="round"/>
<path d="M57.25 2.72656C58.815 4.17106 62.23 7.84856 63.5 11.4996C64.77 15.1506 65.24 19.6396 65.53 20.9171" stroke="white" stroke-width="2" stroke-linecap="round" stroke-linejoin="round"/>
<path d="M51.0762 10.7494C52.9652 10.8634 57.9657 10.9659 61.1657 9.59938C64.3657 8.23288 67.1192 5.71938 68.0637 4.92188M51.7492 15.8059C52.6305 17.9387 54.2196 19.7029 56.2492 20.8014" stroke="white" stroke-width="2" stroke-linecap="round" stroke-linejoin="round"/>
<path d="M51 12C50.9964 9.43587 51.9814 6.96903 53.75 5.11251C54.6831 4.12774 55.8074 3.34376 57.054 2.80858C58.3006 2.27339 59.6434 1.99825 61 2.00001M65 2.83201C66.139 3.3299 67.1752 4.03579 68.0555 4.91351C68.9901 5.84165 69.7315 6.94579 70.2369 8.16211C70.7423 9.37844 71.0016 10.6829 71 12C71 13.231 70.7775 14.4105 70.37 15.5M61 22C62.3098 22.0016 63.607 21.7451 64.8176 21.2452C66.0282 20.7453 67.1285 20.0118 68.0555 19.0865" stroke="white" stroke-width="2" stroke-linecap="round" stroke-linejoin="round"/>
</mask>
<g mask="url(#mask1_354_67)">
<path d="M49 0H73V24H49V0Z" fill="#F7F9F8"/>
</g>
<path d="M116.561 13.1582C115.459 13.1582 114.426 12.6912 113.487 11.9312L113.715 10.8552L113.723 10.8132C113.93 9.67019 114.572 7.75319 116.562 7.75319C117.279 7.75372 117.966 8.03867 118.473 8.54546C118.98 9.05226 119.264 9.73947 119.265 10.4562C119.264 11.1727 118.978 11.8595 118.471 12.366C117.965 12.8725 117.278 13.1574 116.561 13.1582ZM116.561 5.01819C114.022 5.01819 112.051 6.66719 111.251 9.38419C110.031 7.55019 109.103 5.34819 108.564 3.49219H105.828V10.6042C105.827 11.2796 105.559 11.9273 105.081 12.405C104.604 12.8827 103.956 13.1514 103.281 13.1522C102.606 13.1509 101.959 12.8819 101.482 12.4043C101.005 11.9266 100.737 11.2793 100.736 10.6042V3.49219H98V10.6042C98 13.5182 100.37 15.9072 103.281 15.9072C106.194 15.9072 108.564 13.5182 108.564 10.6042V9.41419C109.093 10.5212 109.746 11.6432 110.538 12.6352L108.865 20.5082H111.662L112.875 14.7982C113.938 15.4772 115.16 15.9072 116.561 15.9072C119.561 15.9072 122 13.4552 122 10.4572C122 7.45719 119.561 5.01819 116.561 5.01819Z" fill="#F7F9F8"/>
<path d="M150.001 21.6004H153.601V8.28039H150.001V21.6004ZM151.801 2.40039C150.601 2.40039 149.641 3.36039 149.641 4.56039C149.641 5.76039 150.601 6.72039 151.801 6.72039C153.001 6.72039 153.961 5.76039 153.961 4.56039C153.961 3.36039 153.001 2.40039 151.801 2.40039ZM159.721 10.3204V8.28039H156.121V21.6004H159.721V14.7604C159.721 10.9204 164.641 10.6804 164.641 14.7604V21.6004H168.241V13.4404C168.241 6.96039 161.401 7.20039 159.721 10.3204Z" fill="#F7F9F8"/>
<defs>
<clipPath id="clip0_354_67">
<rect width="24" height="24" fill="white"/>
</clipPath>
</defs>
</svg>
