<svg width="1256" height="144" viewBox="0 0 1256 144" fill="none" xmlns="http://www.w3.org/2000/svg">
<path d="M99.6855 31.2432V143.572H60.9189V31.2432H0V0H160.709V31.2432H99.6855Z" fill="#151515"/>
<path d="M323.821 143.572V83.6982H225.181V143.572H186.414V0H225.181V52.2461H323.821V0H362.588V143.572H323.821Z" fill="#151515"/>
<path d="M407.52 143.572V0H552.868V30.6162H447.331V54.3359H547.435V84.9521H447.331V112.956H554.331V143.572H407.52Z" fill="#151515"/>
<path d="M672.303 143.572V0H817.651V30.6162H712.114V54.3359H812.218V84.9521H712.114V112.956H819.114V143.572H672.303Z" fill="#151515"/>
<path d="M992.258 143.572L895.394 44.9316V143.572H856.627V0H898.737L995.706 99.0586V0H1034.26V143.572H992.258Z" fill="#151515"/>
<path d="M1255.06 71.6816C1255.06 80.877 1254.05 89.0622 1252.03 96.2373C1250.01 103.343 1247.15 109.543 1243.46 114.837C1239.83 120.131 1235.45 124.624 1230.29 128.316C1225.21 132.008 1219.53 134.969 1213.26 137.198C1206.99 139.427 1200.23 141.064 1192.99 142.109C1185.74 143.085 1178.18 143.572 1170.31 143.572H1079.2V0H1170.1C1177.98 0 1185.53 0.522461 1192.78 1.56738C1200.02 2.54264 1206.78 4.14486 1213.05 6.37402C1219.39 8.60319 1225.14 11.5638 1230.29 15.2559C1235.45 18.8783 1239.83 23.3714 1243.46 28.7354C1247.15 34.0296 1250.01 40.2295 1252.03 47.335C1254.05 54.4404 1255.06 62.556 1255.06 71.6816ZM1215.98 71.6816C1215.98 64.7852 1215.07 58.7943 1213.26 53.709C1211.52 48.6237 1208.66 44.444 1204.69 41.1699C1200.79 37.8262 1195.67 35.3532 1189.33 33.751C1182.99 32.0791 1175.26 31.2432 1166.13 31.2432H1117.96V112.329H1166.13C1175.26 112.329 1182.99 111.528 1189.33 109.926C1195.67 108.254 1200.79 105.746 1204.69 102.402C1208.66 98.9889 1211.52 94.7396 1213.26 89.6543C1215.07 84.569 1215.98 78.5781 1215.98 71.6816Z" fill="#151515"/>
</svg>
