<svg width="24" height="24" viewBox="0 0 24 24" fill="none" xmlns="http://www.w3.org/2000/svg">
<path d="M9.6864 11.162C9.6864 11.162 11.9568 10.9856 11.9568 8.21123C11.9568 5.43323 10.0992 4.08203 7.7448 4.08203H0V19.5932H7.7448C7.7448 19.5932 12.474 19.748 12.474 15.014C12.4728 15.0128 12.6792 11.162 9.6864 11.162ZM3.4128 6.83723H7.7448C7.7448 6.83723 8.7984 6.83723 8.7984 8.45003C8.7984 10.0652 8.1792 10.2992 7.476 10.2992H3.4128V6.83723ZM7.5252 16.8356H3.4128V12.6896H7.7448C7.7448 12.6896 9.3144 12.668 9.3144 14.8196C9.3144 16.634 8.142 16.8224 7.5252 16.8356ZM18.7788 8.02643C13.0536 8.02643 13.0584 13.9868 13.0584 13.9868C13.0584 13.9868 12.6672 19.916 18.7788 19.916C18.7788 19.916 23.8704 20.2208 23.8704 15.7916H21.252C21.252 15.7916 21.3384 17.4608 18.8664 17.4608C18.8664 17.4608 16.2456 17.6432 16.2456 14.7608H23.9532C23.9544 14.7596 24.804 8.02643 18.7788 8.02643ZM21.108 12.6896H16.2192C16.2192 12.6896 16.5384 10.2992 18.8376 10.2992C21.1368 10.2992 21.108 12.6896 21.108 12.6896ZM21.7164 4.99283H15.576V6.90563H21.7164V4.99283Z" fill="#050506"/>
</svg>
