<svg width="30" height="24" viewBox="0 0 30 24" fill="none" xmlns="http://www.w3.org/2000/svg">
<g clip-path="url(#clip0_784_31)">
<path d="M11.588 13.292C11.6954 11.376 12.6336 9.688 14.0492 8.49135C15.4372 7.31604 17.3056 6.59766 19.3442 6.59766C21.3807 6.59766 23.2491 7.31604 24.6382 8.49135C26.0526 9.68789 26.9909 11.376 27.0994 13.29C27.2067 15.2587 26.4154 17.0875 25.0273 18.4432C23.6119 19.8221 21.5986 20.6874 19.3442 20.6874C17.0898 20.6874 15.0725 19.8221 13.658 18.4432C12.2689 17.0874 11.4796 15.2585 11.588 13.292Z" fill="#F7F9F8"/>
<path d="M15.3644 13.4622C15.4195 12.4792 15.901 11.613 16.6272 10.999C17.3395 10.396 18.2981 10.0273 19.3442 10.0273C20.3891 10.0273 21.3478 10.396 22.0606 10.999C22.7863 11.613 23.2677 12.4792 23.3233 13.4613C23.3785 14.4714 22.9726 15.4098 22.2602 16.1053C21.5339 16.8129 20.5009 17.2569 19.3442 17.2569C18.1874 17.2569 17.1523 16.8129 16.4266 16.1053C15.7138 15.4098 15.3088 14.4714 15.3644 13.4622Z" fill="#265787"/>
<path d="M9.04741 15.4823C9.05433 15.8677 9.17722 16.617 9.36172 17.202C9.7493 18.4404 10.4068 19.5862 11.3216 20.5958C12.2605 21.6337 13.4166 22.4673 14.752 23.0592C16.1556 23.6807 17.6763 23.9975 19.2559 23.9949C20.833 23.9927 22.3539 23.6698 23.7575 23.0435C25.0928 22.4459 26.2478 21.6087 27.1852 20.5703C28.0995 19.5564 28.7559 18.4087 29.1446 17.1703C29.34 16.5445 29.4634 15.9095 29.513 15.2722C29.5614 14.6435 29.5409 14.0115 29.452 13.3873C29.278 12.1629 28.8543 11.0142 28.2021 9.96692C27.6055 9.00462 26.8366 8.16219 25.9222 7.45304L25.9243 7.45154L16.6969 0.366348C16.6885 0.360117 16.6817 0.353425 16.6728 0.347656C16.0675 -0.117114 15.0494 -0.115498 14.3836 0.350194C13.7105 0.821194 13.6334 1.60016 14.2325 2.09135L14.2299 2.094L18.0786 5.22369L6.34822 5.23616H6.33253C5.36295 5.23731 4.43099 5.87342 4.24637 6.67731C4.0568 7.49631 4.71541 8.17569 5.72353 8.17939L5.72191 8.18296L11.6677 8.17142L1.05783 16.3154C1.04433 16.3253 1.02968 16.3357 1.01722 16.3456C0.0163721 17.112 -0.307166 18.3864 0.32318 19.1928C0.962988 20.013 2.32337 20.0145 3.3346 19.1976L9.12506 14.4586C9.12506 14.4586 9.0406 15.0983 9.04741 15.4823ZM23.9268 17.6245C22.7338 18.8401 21.0633 19.5293 19.2561 19.533C17.446 19.5361 15.7757 18.853 14.5826 17.6397C13.9996 17.0483 13.5714 16.3679 13.3072 15.6432C13.0474 14.93 12.9474 14.1684 13.0145 13.4123C13.0774 12.6667 13.2994 11.9556 13.6537 11.3121C14.0017 10.6797 14.481 10.108 15.0729 9.62458C16.2325 8.67958 17.7091 8.16785 19.2533 8.16577C20.7992 8.16369 22.2746 8.67069 23.4355 9.61269C24.0263 10.094 24.5051 10.6635 24.8531 11.295C25.212 11.9419 25.4307 12.6571 25.495 13.3941C25.5611 14.1497 25.4608 14.9106 25.2011 15.6233C24.9364 16.3502 24.5098 17.0307 23.9268 17.6245Z" fill="#EA7600"/>
</g>
<defs>
<clipPath id="clip0_784_31">
<rect width="29.54" height="24" fill="white"/>
</clipPath>
</defs>
</svg>
