<svg width="24" height="24" viewBox="0 0 24 24" fill="none" xmlns="http://www.w3.org/2000/svg">
<mask id="mask0_291_239" style="mask-type:luminance" maskUnits="userSpaceOnUse" x="1" y="1" width="22" height="22">
<path d="M22 12C22.0016 13.3172 21.7423 14.6216 21.2369 15.8379C20.7315 17.0542 19.9901 18.1584 19.0555 19.0865C18.1285 20.0118 17.0282 20.7453 15.8176 21.2452C14.607 21.7451 13.3098 22.0016 12 22C6.47701 22 2.00001 17.523 2.00001 12C1.99641 9.43587 2.98136 6.96903 4.75001 5.11251C5.68313 4.12774 6.8074 3.34376 8.05402 2.80858C9.30064 2.27339 10.6434 1.99825 12 2.00001C13.3098 1.99839 14.607 2.25487 15.8176 2.75478C17.0282 3.25469 18.1285 3.98824 19.0555 4.91351C19.9901 5.84165 20.7315 6.94579 21.2369 8.16211C21.7423 9.37844 22.0016 10.6829 22 12Z" fill="#555555" stroke="white" stroke-width="2" stroke-linecap="round" stroke-linejoin="round"/>
<path d="M21.9999 12.0008C20.5409 12.0008 16.5159 11.4508 12.9134 13.0323C8.9999 14.7508 6.1664 17.4168 4.9314 19.0743" stroke="white" stroke-width="2" stroke-linecap="round" stroke-linejoin="round"/>
<path d="M8.25 2.72656C9.815 4.17106 13.23 7.84856 14.5 11.4996C15.77 15.1506 16.24 19.6396 16.53 20.9171" stroke="white" stroke-width="2" stroke-linecap="round" stroke-linejoin="round"/>
<path d="M2.0769 10.7494C3.9659 10.8634 8.9664 10.9659 12.1664 9.59938C15.3664 8.23288 18.1199 5.71938 19.0644 4.92188M2.7499 15.8059C3.6312 17.9387 5.22036 19.7029 7.2499 20.8014" stroke="white" stroke-width="2" stroke-linecap="round" stroke-linejoin="round"/>
<path d="M2.00001 12C1.99641 9.43587 2.98136 6.96903 4.75001 5.11251C5.68313 4.12774 6.8074 3.34376 8.05402 2.80858C9.30064 2.27339 10.6434 1.99825 12 2.00001M16 2.83201C17.139 3.3299 18.1752 4.03579 19.0555 4.91351C19.9901 5.84165 20.7315 6.94579 21.2369 8.16211C21.7423 9.37844 22.0016 10.6829 22 12C22 13.231 21.7775 14.4105 21.37 15.5M12 22C13.3098 22.0016 14.607 21.7451 15.8176 21.2452C17.0282 20.7453 18.1285 20.0118 19.0555 19.0865" stroke="white" stroke-width="2" stroke-linecap="round" stroke-linejoin="round"/>
</mask>
<g mask="url(#mask0_291_239)">
<path d="M0 0H24V24H0V0Z" fill="#050506"/>
</g>
</svg>
