<svg width="24" height="24" viewBox="0 0 24 24" fill="none" xmlns="http://www.w3.org/2000/svg">
<path d="M18.561 13.1582C17.459 13.1582 16.426 12.6912 15.487 11.9312L15.715 10.8552L15.723 10.8132C15.93 9.67019 16.572 7.75319 18.562 7.75319C19.2787 7.75372 19.9659 8.03867 20.4727 8.54546C20.9795 9.05226 21.2645 9.73947 21.265 10.4562C21.2637 11.1727 20.9783 11.8595 20.4714 12.366C19.9646 12.8725 19.2776 13.1574 18.561 13.1582ZM18.561 5.01819C16.022 5.01819 14.051 6.66719 13.251 9.38419C12.031 7.55019 11.103 5.34819 10.564 3.49219H7.828V10.6042C7.82747 11.2796 7.55899 11.9273 7.08148 12.405C6.60397 12.8827 5.95644 13.1514 5.281 13.1522C4.60591 13.1509 3.95889 12.8819 3.48182 12.4043C3.00474 11.9266 2.73653 11.2793 2.736 10.6042V3.49219H0V10.6042C0 13.5182 2.37 15.9072 5.281 15.9072C8.194 15.9072 10.564 13.5182 10.564 10.6042V9.41419C11.093 10.5212 11.746 11.6432 12.538 12.6352L10.865 20.5082H13.662L14.875 14.7982C15.938 15.4772 17.16 15.9072 18.561 15.9072C21.561 15.9072 24 13.4552 24 10.4572C24 7.45719 21.561 5.01819 18.561 5.01819Z" fill="#050506"/>
</svg>
